<svg width="623" height="440" viewBox="0 0 623 440" fill="none" xmlns="http://www.w3.org/2000/svg">
<path d="M587.075 234.769C568.188 252.934 542.972 263.815 516.323 265.303C459.144 256.943 445.834 246.7 418.58 229.587C412.723 237.361 406.388 247.283 399.565 254.306C405.303 256.89 453.44 279.025 453.44 279.025C477.686 289.947 505.621 294.335 532.397 291.501C559.183 286.818 584.032 274.81 603.928 256.943C617.795 245.317 601.06 223.006 587.075 234.769Z" fill="url(#paint0_linear_332_583)"/>
<path d="M35.8211 158.249C21.1969 146.848 3.28346 168.361 17.3998 180.075C26.508 187.527 60.6874 216.564 69.9785 224.516L79.4858 224.516C82.0544 214.971 80.7428 206.795 85.1902 197.896L35.8211 158.249Z" fill="#2A84EE"/>
<path d="M35.8211 158.249C21.1969 146.848 3.28346 168.361 17.3998 180.075C26.508 187.527 60.6874 216.564 69.9785 224.516L79.4858 224.516C82.0544 214.971 80.7428 206.795 85.1902 197.896L35.8211 158.249Z" fill="url(#paint1_linear_332_583)"/>
<path d="M517.419 29.736C502.656 83.2988 484.672 135.932 463.574 187.352C458.894 197.974 453.632 208.327 447.822 218.377C443.725 225.375 439.263 232.152 434.457 238.684C428.489 246.865 421.914 254.593 414.791 261.798C408.596 267.522 401.993 272.786 395.025 277.543L387.876 282.582C350.338 306.042 306.034 316.367 261.972 311.93C192.94 296.138 166.319 282.582 113.989 255.971L68.7104 223.543C69.5553 213.944 81.7275 206.649 83.9227 197.262C146.907 241.011 253.396 299.407 330.406 277.435C343.105 273.866 355.237 268.542 366.45 261.606C373.942 257.034 381.013 251.811 387.575 245.988C395.203 239.132 402.208 231.622 408.525 223.543C413.503 217.161 418.116 210.499 422.33 203.592C427.927 194.438 432.966 184.952 437.412 175.188C458.459 123.858 476.405 71.3172 491.154 17.8525C496.577 0.110005 523.134 12.1012 517.428 29.7356L517.419 29.736Z" fill="url(#paint2_linear_332_583)"/>
<path d="M408.439 223.883C402.09 232.042 395.527 239.506 387.523 246.067C370.243 235.764 331.88 211.284 314.985 200.804C273.534 174.997 227.226 146.612 176.207 150.847L176.214 150.852C153.644 151.829 132.214 160.995 115.96 176.629C113.195 179.546 110.676 182.684 108.43 186.016C103.684 192.892 99.9194 200.392 97.2458 208.294C93.9912 218.551 91.7438 229.098 90.5364 239.79C90.0836 243.199 89.7485 246.464 89.4128 249.722C88.8657 255.698 88.318 261.669 87.771 267.645C83.2039 319.762 81.2608 372.408 77.925 424.659C76.7657 443.336 48.022 438.401 49.1953 419.854L56.0142 311.566C57.4469 290.303 57.8736 268.473 60.0918 246.997C61.0225 237.757 62.3467 228.476 64.2688 219.667L65.4636 214.295L65.4577 214.296C67.3544 205.88 70.0747 197.672 73.5761 189.786C76.8747 182.269 80.9719 175.124 85.8079 168.473C102.793 145.279 128.079 129.455 156.424 124.274C204.96 114.379 252.817 131.713 294.701 155.186C326.256 172.873 377.401 206.003 408.439 223.883Z" fill="url(#paint3_linear_332_583)"/>
<path d="M408.439 223.883C402.09 232.042 395.527 239.506 387.523 246.067C370.243 235.764 331.88 211.284 314.985 200.804C273.534 174.997 227.226 146.612 176.207 150.847L176.214 150.852C153.644 151.829 132.214 160.995 115.96 176.629C113.195 179.546 110.676 182.684 108.43 186.016C103.684 192.892 99.9194 200.392 97.2458 208.294C93.9912 218.551 91.7438 229.098 90.5364 239.79C90.0836 243.199 89.7485 246.464 89.4128 249.722C88.8657 255.698 88.318 261.669 87.771 267.645C83.2039 319.762 81.2608 372.408 77.925 424.659C76.7657 443.336 48.022 438.401 49.1953 419.854L56.0142 311.566C57.4469 290.303 57.8736 268.473 60.0918 246.997C61.0225 237.757 62.3467 228.476 64.2688 219.667L65.4636 214.295L65.4577 214.296C67.3544 205.88 70.0747 197.672 73.5761 189.786C76.8747 182.269 80.9719 175.124 85.8079 168.473C102.793 145.279 128.079 129.455 156.424 124.274C204.96 114.379 252.817 131.713 294.701 155.186C326.256 172.873 377.401 206.003 408.439 223.883Z" fill="url(#paint4_linear_332_583)" fill-opacity="0.8"/>
<defs>
<linearGradient id="paint0_linear_332_583" x1="520.992" y1="239.14" x2="526.511" y2="292.114" gradientUnits="userSpaceOnUse">
<stop stop-color="#72F7D7"/>
<stop offset="1" stop-color="#11AE88"/>
</linearGradient>
<linearGradient id="paint1_linear_332_583" x1="35.1184" y1="152.261" x2="35.1184" y2="199.163" gradientUnits="userSpaceOnUse">
<stop stop-color="#ABD2FF"/>
<stop offset="1" stop-color="#2A84EE"/>
</linearGradient>
<linearGradient id="paint2_linear_332_583" x1="336.817" y1="221.347" x2="416.678" y2="297.406" gradientUnits="userSpaceOnUse">
<stop stop-color="#ABD2FF"/>
<stop offset="1" stop-color="#2A84EE"/>
</linearGradient>
<linearGradient id="paint3_linear_332_583" x1="118.783" y1="111.063" x2="196.109" y2="212.474" gradientUnits="userSpaceOnUse">
<stop stop-color="#72F7D7"/>
<stop offset="1" stop-color="#11AE88"/>
</linearGradient>
<linearGradient id="paint4_linear_332_583" x1="309.563" y1="87.6113" x2="220.828" y2="181.417" gradientUnits="userSpaceOnUse">
<stop stop-color="#72F7D7"/>
<stop offset="1" stop-color="#11AE88"/>
</linearGradient>
</defs>
</svg>
